
<svg xmlns="http://www.w3.org/2000/svg" version="1.1" xmlns:xlink="http://www.w3.org/1999/xlink" preserveAspectRatio="none" x="0px" y="0px" width="128px" height="128px" viewBox="0 0 128 128">
<defs>
<g id="Layer0_0_FILL">
<path fill="#FFFFFF" stroke="none" d="
M 104.4 51.85
L 118.5 55.4 126.6 26.15 92.8 17.05 35.2 17.05 1.4 26.15 9.5 55.4 23.6 51.85 23.6 110.95 104.4 110.95 104.4 51.85
M 102.85 46.85
Q 101.35 47.3 100.35 48.85 99.35 49.9 99.35 51.85
L 99.35 105.85 28.65 105.85 28.65 51.85
Q 28.65 49.9 27.65 48.85 26.65 47.3 25.65 46.85 24.1 46.35 22.65 46.85
L 13 49.35 7.45 29.65 35.7 22.1 92.3 22.1 120.55 29.65 115 49.35 105.9 46.85
Q 103.9 46.35 102.85 46.85 Z"/>
</g>
</defs>

<g transform="matrix( 1, 0, 0, 1, 0,0) ">
<use xlink:href="#Layer0_0_FILL"/>
</g>
</svg>
